Motion_pl13
version=1
nRows=12
nColumns=43
inDegrees=yes
endheader
time	pelvis_tilt	pelvis_list	pelvis_rotation	pelvis_tx	pelvis_ty	pelvis_tz	hip_flexion_r	hip_adduction_r	hip_rotation_r	knee_angle_r	ankle_angle_r	subtalar_angle_r	mtp_angle_r	hip_flexion_l	hip_adduction_l	hip_rotation_l	knee_angle_l	ankle_angle_l	subtalar_angle_l	mtp_angle_l	lumbar_extension	lumbar_bending	lumbar_rotation	neck_flexion	neck_lateral_bending	neck_rotation	arm_flex_r	arm_add_r	arm_rot_r	elbow_flex_r	pro_sup_r	wrist_flex_r	wrist_dev_r	hand_finger_flex_r	arm_flex_l	arm_add_l	arm_rot_l	elbow_flex_l	pro_sup_l	wrist_flex_l	wrist_dev_l	hand_finger_flex_l
      1.24500000	      3.00482791	     -7.39147969	     81.68185316	     -0.01577697	      0.44115012	      0.46140811	    103.43093272	     -0.30119558	     -7.03749481	   -132.14079875	     17.45348743	      1.50790388	     35.72336157	     99.48746311	    -13.57578103	      3.51808593	   -138.68466471	     22.65205911	      5.43617429	     40.73126580	    -69.59998975	     -3.18317110	      4.01336629	     28.97209133	     -2.78272392	      4.00545278	     90.77892069	    -28.85340746	     29.18995992	     79.14749033	    116.25893586	    -14.92624606	      0.49577299	     11.27084314	     85.38764572	    -38.63343363	     22.89281903	     79.89263146	    108.01292561	    -21.44362847	      2.39785840	     29.91930939
      1.24750000	      2.98306484	     -7.50760620	     81.62440812	     -0.01608106	      0.44066028	      0.46085968	    103.46185502	     -0.34770208	     -7.10908415	   -132.16944208	     17.54865558	      1.48232680	     35.71937135	     99.62785840	    -13.56068507	      3.49107375	   -138.79648585	     22.66948338	      5.44065760	     40.73035624	    -69.70917713	     -3.22011985	      3.91610339	     28.87030905	     -2.81404931	      4.01894660	     90.92441505	    -28.63255583	     29.27643844	     79.33062867	    116.26400609	    -14.89764135	      0.44559432	     11.25492294	     85.73218279	    -38.43766195	     22.81608806	     80.01288647	    108.00338653	    -21.46405528	      2.37075838	     29.89680315
      1.25000000	      2.89682447	     -7.79079351	     81.57041357	     -0.01649261	      0.44023129	      0.46063978	    103.54953565	     -0.41328420	     -7.19213727	   -132.07129223	     18.28978977	      1.19743852	     35.66856404	     99.88174162	    -13.51022618	      3.36957157	   -138.76104815	     22.73688903	      5.41815451	     40.72025998	    -69.64582805	     -3.25685498	      3.83353718	     28.75887709	     -2.86021522	      4.06820993	     91.24488893	    -28.60057398	     29.65940491	     79.44363093	    116.31305745	    -14.60763340	      0.32191066	     11.17373999	     86.17356679	    -38.15126242	     22.87483868	     79.94062687	    107.97182410	    -21.42534942	      2.38176831	     29.80568655
      1.25250000	      2.87443101	     -7.97914869	     81.54273226	     -0.01689106	      0.43984622	      0.46022664	    103.55682826	     -0.50021776	     -7.32233677	   -132.02777540	     18.74950448	      1.03034072	     35.55495470	    100.03816082	    -13.45091290	      3.30259775	   -138.79324111	     22.80938448	      5.31626933	     40.70665502	    -69.66628283	     -3.26789779	      3.80288518	     28.59704144	     -2.88339828	      4.01243701	     91.44804186	    -28.62131702	     29.93051864	     79.65998972	    116.33093572	    -14.33871303	      0.15672600	     11.05422217	     86.55937852	    -37.87382584	     22.91407695	     79.94221499	    107.91244139	    -21.38953875	      2.37332997	     29.69919307
      1.25500000	      2.86306116	     -8.15426157	     81.51524394	     -0.01722065	      0.43961629	      0.45980898	    103.52615096	     -0.57238160	     -7.47039573	   -131.96450733	     19.20667660	      0.86184772	     35.41726215	    100.16947232	    -13.39861088	      3.23085916	   -138.82337834	     22.88789542	      5.19404996	     40.69162376	    -69.70316029	     -3.29226478	      3.80012420	     28.42461300	     -2.88286923	      3.92717625	     91.60100172	    -28.63168267	     30.13379602	     79.85395937	    116.33490358	    -14.08353814	     -0.00021847	     10.91922622	     86.91772027	    -37.55720827	     22.93674202	     79.93233148	    107.83317194	    -21.34363576	      2.35950429	     29.60203807
      1.25750000	      2.85020523	     -8.26056266	     81.45750938	     -0.01754249	      0.43923594	      0.45930319	    103.51123695	     -0.64309872	     -7.58610544	   -131.97248599	     19.27392722	      0.84933333	     35.40314873	    100.23944461	    -13.39539452	      3.22167181	   -138.89225815	     22.90649552	      5.17697660	     40.69016034	    -69.77484837	     -3.32744725	      3.68628835	     28.32267204	     -2.90800869	      3.91530796	     91.65601801	    -28.46802552	     30.22708856	     80.04984309	    116.33713826	    -14.04976304	     -0.05947599	     10.90718024	     87.19244182	    -37.38602765	     22.87369416	     80.02656504	    107.81680852	    -21.35463479	      2.33584748	     29.58528630
      1.26000000	      2.81319316	     -8.46705558	     81.40666953	     -0.01792167	      0.43906216	      0.45894411	    103.44186851	     -0.70193118	     -7.75738012	   -131.86753879	     20.07233853	      0.51146218	     35.28385871	    100.34035124	    -13.38609859	      3.11426832	   -138.85847510	     23.06806555	      5.03622023	     40.67761628	    -69.74792335	     -3.37391786	      3.68329111	     28.07034834	     -2.86937437	      3.82808911	     91.77009948	    -28.57312685	     30.46899390	     80.28244145	    116.36892557	    -13.78883253	     -0.22412189	     10.81984214	     87.50205530	    -37.06812229	     22.91081737	     80.01871636	    107.70663540	    -21.24683915	      2.31473817	     29.56337186
      1.26250000	      2.79767092	     -8.59177387	     81.36028156	     -0.01815336	      0.43893823	      0.45847069	    103.39324659	     -0.75900042	     -7.89599053	   -131.82616219	     20.15185941	      0.49073383	     35.26284810	    100.39099884	    -13.38186013	      3.08131679	   -138.89706522	     23.09218893	      5.02125113	     40.67596508	    -69.80581949	     -3.41391204	      3.57636225	     27.96194787	     -2.89152170	      3.81361662	     91.78985538	    -28.44589554	     30.55757905	     80.47130534	    116.37223471	    -13.75516524	     -0.27965384	     10.80844215	     87.74384034	    -36.90784812	     22.85996152	     80.12245008	    107.68401975	    -21.24577147	      2.28782659	     29.55671787
      1.26500000	      2.76260644	     -8.78553763	     81.29679989	     -0.01844955	      0.43888887	      0.45806855	    103.27875332	     -0.78432312	     -8.08627836	   -131.70800516	     20.99483337	      0.09688292	     35.11277162	    100.45440129	    -13.40479367	      2.98448193	   -138.86032444	     23.28926974	      4.90217496	     40.66402351	    -69.78152270	     -3.48370280	      3.58490005	     27.72653343	     -2.82694498	      3.72451732	     91.80304746	    -28.57395500	     30.71212709	     80.75585031	    116.40442487	    -13.55850858	     -0.40451073	     10.72480442	     88.00097280	    -36.62122992	     22.90013315	     80.17220725	    107.54420596	    -21.08576706	      2.25140849	     29.59447675
      1.26750000	      2.74733547	     -8.91902978	     81.25347097	     -0.01865400	      0.43892961	      0.45763060	    103.21288086	     -0.83839312	     -8.23359795	   -131.63794458	     21.07378073	      0.07226224	     35.08381318	    100.48669610	    -13.41057633	      2.95602424	   -138.86361389	     23.31271836	      4.89427744	     40.66218563	    -69.82317901	     -3.52448439	      3.47158124	     27.62579413	     -2.84615968	      3.71149759	     91.78885244	    -28.46966768	     30.79459031	     80.94400143	    116.40783616	    -13.53012673	     -0.45083152	     10.71378847	     88.21475212	    -36.47821736	     22.85725533	     80.27377480	    107.52000906	    -21.07673295	      2.22654869	     29.59494366
      1.27000000	      2.72063057	     -9.11753248	     81.18716588	     -0.01884520	      0.43898445	      0.45720423	    103.09365321	     -0.84519600	     -8.43199793	   -131.51319335	     21.87770371	     -0.32104984	     34.88825370	    100.55350342	    -13.45129071	      2.90200296	   -138.82557161	     23.48949365	      4.83973367	     40.65004865	    -69.78907805	     -3.60458193	      3.48348894	     27.46517706	     -2.76370637	      3.64750587	     91.71532247	    -28.59204007	     30.86180983	     81.26676714	    116.42793177	    -13.39870852	     -0.50802278	     10.62461177	     88.44071329	    -36.24200461	     22.91141568	     80.36550655	    107.40010637	    -20.90272031	      2.21148968	     29.65412212
      1.27250000	      2.73197265	     -9.30381683	     81.12995657	     -0.01889314	      0.43912330	      0.45682320	    103.00085427	     -0.85054046	     -8.67009011	   -131.39857754	     22.36556999	     -0.57443599	     34.51133738	    100.63077686	    -13.49924093	      2.93022187	   -138.79227460	     23.60958431	      4.85377700	     40.62968092	    -69.77249801	     -3.69387049	      3.50900745	     27.37489026	     -2.64411123	      3.56782155	     91.58723648	    -28.69513432	     30.84754058	     81.61012250	    116.42353596	    -13.26015825	     -0.49819090	     10.47283151	     88.70225509	    -35.98640248	     22.96015071	     80.41977580	    107.30878576	    -20.72694889	      2.23902349	     29.70622498
